<svg id="Layer_1" data-name="Layer 1" xmlns="http://www.w3.org/2000/svg" viewBox="0 0 427 270"><defs><style>.cls-1{fill:#a56b85;}.cls-2{fill:#bc869c;}.cls-3{fill:#e8cde1;}</style></defs><title>Artboard 2</title><path d="M26.47,155.19h4.21v46.2q0,11.15,5.62,17.76t15,6.63A19.51,19.51,0,0,0,66,219.56,21.63,21.63,0,0,0,71.91,204q0-9.45-5.86-15.61a19.54,19.54,0,0,0-14.78-6.16,21,21,0,0,0-9.17,2.06,25.14,25.14,0,0,0-8,6.26v-5.7a26.57,26.57,0,0,1,8-5,24.74,24.74,0,0,1,9.17-1.7,25.84,25.84,0,0,1,10,1.93,22.93,22.93,0,0,1,8.06,5.62A25.57,25.57,0,0,1,74.52,194a27.28,27.28,0,0,1,1.8,9.94q0,11.13-7.06,18.43a23.7,23.7,0,0,1-17.79,7.29,24.41,24.41,0,0,1-12.32-3.19,25.81,25.81,0,0,1-9.24-9.08,23.3,23.3,0,0,1-2.59-6.91,45,45,0,0,1-.85-9.42Z"/><path d="M86.59,228.7V179.06H90.8v9.7a20.4,20.4,0,0,1,7.37-7.42,19.84,19.84,0,0,1,10-2.49c.34,0,.74,0,1.18.05s1,.11,1.75.21v4.16h-.31c-1.61-.14-2.69-.21-3.23-.21a15.25,15.25,0,0,0-12,5.44q-4.72,5.44-4.72,13.92V228.7Z"/><path d="M116.57,165.09a3,3,0,0,1,3-3,3.18,3.18,0,0,1,2.26.87,2.86,2.86,0,0,1,.92,2.15,3,3,0,0,1-.92,2.21,3.07,3.07,0,0,1-2.26.93,2.87,2.87,0,0,1-2.13-.93A3,3,0,0,1,116.57,165.09Zm.92,63.61V179.06h4.32V228.7Z"/><path d="M181.92,226.7q0,11.76-6.54,18.61t-17.74,6.85a37.25,37.25,0,0,1-6.9-.71,67.73,67.73,0,0,1-8.14-2.16l1.49-4.31a73.92,73.92,0,0,0,7.83,2.18,29.3,29.3,0,0,0,5.93.69q9.18,0,14.47-5.64t5.29-15.51V206.42q0-11.19-5.57-17.79T157.13,182a19.42,19.42,0,0,0-14.68,6.21,21.68,21.68,0,0,0-5.91,15.55q0,9.45,5.83,15.61a19.42,19.42,0,0,0,14.76,6.16,20.64,20.64,0,0,0,9.19-2.08,25.84,25.84,0,0,0,8-6.24v5.65a25.47,25.47,0,0,1-8,5.06,25.08,25.08,0,0,1-9.16,1.67,25.62,25.62,0,0,1-10-1.93,22.93,22.93,0,0,1-8.06-5.62,25.66,25.66,0,0,1-5.24-8.34,27,27,0,0,1-1.8-9.83q0-11.19,7.06-18.49a23.8,23.8,0,0,1,17.84-7.29,24.49,24.49,0,0,1,12.32,3.19,25.66,25.66,0,0,1,9.24,9.14,21.64,21.64,0,0,1,2.62,6.9,46.22,46.22,0,0,1,.82,9.37Z"/><path d="M194.86,228.7V155.19h4.21v32.7a20.71,20.71,0,0,1,7.27-7.29A18.81,18.81,0,0,1,216,178q8.84,0,14,5.93t5.21,16.15V228.7h-4.2V199.29q0-7.6-4.24-12.38A13.81,13.81,0,0,0,216,182.14a15.39,15.39,0,0,0-12.16,5.49q-4.78,5.49-4.78,14.07v27Z"/><path d="M247.53,165h4.32v14.07H269.4v4.11H251.85v27.77q0,7.19,3.49,10.47t11.09,3.29h3v4h-2.2q-9.85,0-14.76-4.33t-4.91-13Z"/><path class="cls-1" d="M282.55,251.09h-4.21V206.73a45.39,45.39,0,0,1,.84-9.37,23.14,23.14,0,0,1,2.6-6.9,25.66,25.66,0,0,1,9.24-9.14,24.51,24.51,0,0,1,12.32-3.19,23.73,23.73,0,0,1,17.79,7.29q7,7.29,7.06,18.49a27.11,27.11,0,0,1-1.8,9.88,25.81,25.81,0,0,1-5.18,8.29,23,23,0,0,1-8.06,5.62,25.67,25.67,0,0,1-10,1.93A24.53,24.53,0,0,1,286,222.9v-5.65a25.56,25.56,0,0,0,8,6.24,20.67,20.67,0,0,0,9.16,2.08,19.51,19.51,0,0,0,14.79-6.16q5.85-6.16,5.85-15.61a21.61,21.61,0,0,0-5.93-15.55A19.5,19.5,0,0,0,303.13,182q-9.35,0-15,6.59t-5.62,17.79Z"/><path class="cls-1" d="M337.53,165.09a3,3,0,0,1,3-3,3.18,3.18,0,0,1,2.26.87,2.82,2.82,0,0,1,.92,2.15,3,3,0,0,1-.92,2.21,3.07,3.07,0,0,1-2.26.93,2.87,2.87,0,0,1-2.13-.93A3,3,0,0,1,337.53,165.09Zm.93,63.61V179.06h4.31V228.7Z"/><path class="cls-1" d="M402.88,226.7q0,11.76-6.54,18.61t-17.74,6.85a37.25,37.25,0,0,1-6.9-.71,67.73,67.73,0,0,1-8.14-2.16l1.49-4.31a73.92,73.92,0,0,0,7.83,2.18,29.38,29.38,0,0,0,5.93.69q9.18,0,14.48-5.64t5.28-15.51V206.42q0-11.19-5.57-17.79T378.09,182a19.42,19.42,0,0,0-14.68,6.21,21.68,21.68,0,0,0-5.91,15.55q0,9.45,5.83,15.61a19.42,19.42,0,0,0,14.76,6.16,20.64,20.64,0,0,0,9.19-2.08,25.84,25.84,0,0,0,8-6.24v5.65a25.47,25.47,0,0,1-8,5.06,25.08,25.08,0,0,1-9.16,1.67,25.62,25.62,0,0,1-10-1.93,22.93,22.93,0,0,1-8.06-5.62,25.66,25.66,0,0,1-5.24-8.34,27,27,0,0,1-1.8-9.83q0-11.19,7.06-18.49a23.8,23.8,0,0,1,17.84-7.29,24.49,24.49,0,0,1,12.32,3.19,25.77,25.77,0,0,1,9.25,9.14,21.87,21.87,0,0,1,2.61,6.9,46.22,46.22,0,0,1,.82,9.37Z"/><ellipse class="cls-2" cx="214.68" cy="77.88" rx="83.78" ry="64.33"/><path class="cls-3" d="M244.54,49.81a26.45,26.45,0,0,0-14.9,4.42,27.75,27.75,0,0,0-10.16,12.26,31.69,31.69,0,0,0-2.37,8,80,80,0,0,0-.71,12.16v55.57c3.42-.06,6.78-.26,10.08-.62V107.94a37.1,37.1,0,0,0,7.78,4A47.9,47.9,0,0,0,245,113.44a24.82,24.82,0,0,0,10.94-2.54,26.22,26.22,0,0,0,9-7.18,32,32,0,0,0,5.67-10.15,36.57,36.57,0,0,0,2-12q0-13.78-7.92-22.78A25.59,25.59,0,0,0,244.54,49.81Z"/><path class="cls-3" d="M156.31,31.75v45A80.15,80.15,0,0,0,157,89.18a30.8,30.8,0,0,0,12.62,19.9,26.09,26.09,0,0,0,14.8,4.48,25.62,25.62,0,0,0,20.08-9q7.95-9,7.95-23a34.92,34.92,0,0,0-3.22-15,30.64,30.64,0,0,0-9.31-11.47,25,25,0,0,0-7.12-3.8,24.49,24.49,0,0,0-7.92-1.34,26.37,26.37,0,0,0-8,1c-5.8,1.83-8.45,3.61-10.56,5.3V25.32A83.58,83.58,0,0,0,156.31,31.75Z"/><ellipse cx="244.54" cy="81.8" rx="17.67" ry="20.67"/><ellipse cx="184.25" cy="81.8" rx="17.67" ry="20.67"/></svg>