<svg id="Layer_1" data-name="Layer 1" xmlns="http://www.w3.org/2000/svg" viewBox="0 0 519.06 134.53"><defs><style>.cls-1{fill:#bc869c;}.cls-2{fill:#e8cde1;}</style></defs><title>Artboard 4</title><path d="M167.46,23.49h3.8V65.18q0,10,5.07,16a16.86,16.86,0,0,0,13.51,6,17.63,17.63,0,0,0,13.27-5.6,19.53,19.53,0,0,0,5.35-14,19.62,19.62,0,0,0-5.28-14.08,17.6,17.6,0,0,0-13.34-5.56,19,19,0,0,0-8.27,1.85,22.91,22.91,0,0,0-7.21,5.65V50.26a23.81,23.81,0,0,1,7.21-4.54,22.26,22.26,0,0,1,8.27-1.53,23.21,23.21,0,0,1,9,1.74A20.77,20.77,0,0,1,206.14,51a23.24,23.24,0,0,1,4.68,7.48,24.71,24.71,0,0,1,1.62,9q0,10-6.37,16.63a21.4,21.4,0,0,1-16,6.58,22.08,22.08,0,0,1-11.12-2.88,23.17,23.17,0,0,1-8.33-8.2,20.91,20.91,0,0,1-2.34-6.23,40.76,40.76,0,0,1-.77-8.5Z"/><path d="M221.71,89.82V45h3.8v8.75a18.43,18.43,0,0,1,6.64-6.69,17.93,17.93,0,0,1,9-2.25c.31,0,.67,0,1.07,0s.93.09,1.58.18v3.75h-.28c-1.45-.12-2.43-.18-2.92-.18a13.72,13.72,0,0,0-10.84,4.91q-4.26,4.91-4.26,12.55V89.82Z"/><path d="M248.76,32.43a2.7,2.7,0,0,1,2.73-2.74,2.86,2.86,0,0,1,2,.79,2.57,2.57,0,0,1,.84,1.95,2.71,2.71,0,0,1-.84,2,2.78,2.78,0,0,1-2,.83,2.61,2.61,0,0,1-1.92-.83A2.76,2.76,0,0,1,248.76,32.43Zm.84,57.39V45h3.89V89.82Z"/><path d="M307.73,88q0,10.61-5.9,16.79t-16,6.18a32.43,32.43,0,0,1-6.23-.65,61.69,61.69,0,0,1-7.34-1.94l1.34-3.89a68.76,68.76,0,0,0,7.07,2,26.81,26.81,0,0,0,5.35.62q8.28,0,13.06-5.09t4.77-14V69.72q0-10.11-5-16a16.74,16.74,0,0,0-13.46-6,17.53,17.53,0,0,0-13.25,5.61,19.57,19.57,0,0,0-5.33,14A19.67,19.67,0,0,0,272,81.44,17.55,17.55,0,0,0,285.36,87a18.66,18.66,0,0,0,8.29-1.88,23.44,23.44,0,0,0,7.18-5.63v5.1a22.18,22.18,0,0,1-15.47,6.07,23.18,23.18,0,0,1-9-1.74,20.81,20.81,0,0,1-7.28-5.07,23.38,23.38,0,0,1-4.72-7.53,24.41,24.41,0,0,1-1.62-8.87q0-10.1,6.37-16.68a21.46,21.46,0,0,1,16.09-6.58,22.15,22.15,0,0,1,11.12,2.87,23.19,23.19,0,0,1,8.34,8.25A19.75,19.75,0,0,1,307,61.54a41.43,41.43,0,0,1,.74,8.46Z"/><path d="M319.41,89.82V23.49h3.8V53a18.57,18.57,0,0,1,6.55-6.57,16.92,16.92,0,0,1,8.73-2.32q8,0,12.67,5.35T355.86,64v25.8h-3.79V63.28a16.22,16.22,0,0,0-3.83-11.17,12.45,12.45,0,0,0-9.75-4.3,13.92,13.92,0,0,0-11,4.95q-4.31,5-4.3,12.7V89.82Z"/><path d="M366.94,32.33h3.89V45h15.84v3.7H370.83V73.79q0,6.49,3.15,9.45t10,3h2.69v3.61h-2q-8.9,0-13.32-3.91t-4.42-11.75Z"/><path class="cls-1" d="M398.53,110h-3.8V70a40.61,40.61,0,0,1,.76-8.46,21,21,0,0,1,2.34-6.23,23.35,23.35,0,0,1,8.34-8.25,22.15,22.15,0,0,1,11.12-2.87,21.42,21.42,0,0,1,16,6.58q6.38,6.58,6.37,16.68a24.46,24.46,0,0,1-1.62,8.91,23.18,23.18,0,0,1-4.68,7.49,20.77,20.77,0,0,1-7.27,5.07,23.21,23.21,0,0,1-9,1.74,22.62,22.62,0,0,1-8.27-1.51,22.94,22.94,0,0,1-7.21-4.56v-5.1a23.42,23.42,0,0,0,7.21,5.63A18.67,18.67,0,0,0,417.11,87a17.64,17.64,0,0,0,13.34-5.56,19.64,19.64,0,0,0,5.28-14.09,19.55,19.55,0,0,0-5.35-14,17.6,17.6,0,0,0-13.27-5.61,16.85,16.85,0,0,0-13.51,6q-5.07,5.94-5.07,16Z"/><path class="cls-1" d="M448.14,32.43a2.7,2.7,0,0,1,2.74-2.74,2.86,2.86,0,0,1,2,.79,2.57,2.57,0,0,1,.84,1.95,2.71,2.71,0,0,1-.84,2,2.77,2.77,0,0,1-2,.83,2.61,2.61,0,0,1-1.93-.83A2.76,2.76,0,0,1,448.14,32.43ZM449,89.82V45h3.89V89.82Z"/><path class="cls-1" d="M507.11,88q0,10.61-5.9,16.79t-16,6.18a32.43,32.43,0,0,1-6.23-.65,61.69,61.69,0,0,1-7.34-1.94l1.34-3.89a68.76,68.76,0,0,0,7.07,2,26.81,26.81,0,0,0,5.35.62q8.28,0,13.06-5.09t4.77-14V69.72q0-10.11-5-16a16.74,16.74,0,0,0-13.46-6,17.53,17.53,0,0,0-13.25,5.61,19.57,19.57,0,0,0-5.33,14,19.71,19.71,0,0,0,5.26,14.09A17.58,17.58,0,0,0,484.74,87,18.66,18.66,0,0,0,493,85.12a23.44,23.44,0,0,0,7.18-5.63v5.1a22.18,22.18,0,0,1-15.47,6.07,23.18,23.18,0,0,1-9-1.74,20.81,20.81,0,0,1-7.28-5.07,23.38,23.38,0,0,1-4.72-7.53,24.41,24.41,0,0,1-1.62-8.87q0-10.1,6.37-16.68a21.46,21.46,0,0,1,16.09-6.58,22.15,22.15,0,0,1,11.12,2.87A23.19,23.19,0,0,1,504,55.31a19.75,19.75,0,0,1,2.36,6.23,41.43,41.43,0,0,1,.74,8.46Z"/><ellipse class="cls-1" cx="76.37" cy="60.28" rx="62.03" ry="47.64"/><path class="cls-2" d="M98.48,39.5a19.59,19.59,0,0,0-11,3.27,20.5,20.5,0,0,0-7.53,9.08,23.08,23.08,0,0,0-1.75,5.89,59.09,59.09,0,0,0-.53,9v41.14q3.8-.06,7.47-.45V82.54a27,27,0,0,0,5.76,2.92,35.14,35.14,0,0,0,7.94,1.15,18.29,18.29,0,0,0,8.1-1.88,19.21,19.21,0,0,0,6.66-5.31,23.79,23.79,0,0,0,4.2-7.52A27.05,27.05,0,0,0,119.23,63q0-10.2-5.87-16.87A19,19,0,0,0,98.48,39.5Z"/><path class="cls-2" d="M33.14,26.13V59.46a59,59,0,0,0,.53,9.19,21.58,21.58,0,0,0,1.75,5.62A21.29,21.29,0,0,0,43,83.39a19.39,19.39,0,0,0,11,3.32A18.93,18.93,0,0,0,68.84,80q5.89-6.67,5.89-17a26,26,0,0,0-2.38-11.14,22.71,22.71,0,0,0-6.9-8.49,18.53,18.53,0,0,0-5.27-2.81,17.87,17.87,0,0,0-5.86-1,19.63,19.63,0,0,0-5.89.77,21.7,21.7,0,0,0-7.82,3.92V21.37A60.85,60.85,0,0,0,33.14,26.13Z"/><ellipse cx="98.48" cy="63.19" rx="13.09" ry="15.3"/><ellipse cx="53.84" cy="63.19" rx="13.09" ry="15.3"/></svg>